<svg width="42" height="46" viewBox="0 0 42 46" fill="none" xmlns="http://www.w3.org/2000/svg">
<path d="M21.0033 0C14.3002 0 8.8208 5.37185 8.8208 11.9433C8.8208 18.5148 14.3002 23.8866 21.0033 23.8866C27.7063 23.8866 33.1857 18.5148 33.1857 11.9433C33.1857 5.37185 27.7063 0 21.0033 0Z" fill="#989898"/>
<path d="M41.9102 33.4307C41.591 32.6483 41.1655 31.9182 40.6867 31.2402C38.2395 27.6937 34.4625 25.3467 30.2067 24.773C29.6747 24.7209 29.0895 24.8251 28.6639 25.1381C26.4296 26.7549 23.7697 27.5893 21.0033 27.5893C18.2369 27.5893 15.577 26.7549 13.3427 25.1381C12.9171 24.8251 12.3319 24.6687 11.7999 24.773C7.54405 25.3467 3.71379 27.6937 1.31989 31.2402C0.841103 31.9182 0.415475 32.7005 0.0963546 33.4307C-0.0632054 33.7436 -0.0100527 34.1087 0.149507 34.4216C0.575136 35.1518 1.10707 35.882 1.58585 36.5078C2.3306 37.4988 3.1286 38.3853 4.03302 39.2198C4.77776 39.9499 5.62892 40.6279 6.48018 41.306C10.6828 44.3831 15.7367 45.9998 20.9501 45.9998C26.1636 45.9998 31.2175 44.383 35.4201 41.306C36.2713 40.6801 37.1224 39.9499 37.8673 39.2198C38.7184 38.3853 39.5696 37.4987 40.3144 36.5078C40.8464 35.8298 41.3252 35.1518 41.7508 34.4216C42.0166 34.1087 42.0698 33.7435 41.9102 33.4307Z" fill="#989898"/>
</svg>
